<?xml version="1.0" standalone="no"?>
<!DOCTYPE svg PUBLIC "-//W3C//DTD SVG 20010904//EN"
 "http://www.w3.org/TR/2001/REC-SVG-20010904/DTD/svg10.dtd">
<svg version="1.0" xmlns="http://www.w3.org/2000/svg"
 width="179.000000pt" height="179.000000pt" viewBox="0 0 179.000000 179.000000"
 preserveAspectRatio="xMidYMid meet">
<metadata>
Created by potrace 1.14, written by Peter Selinger 2001-2017
</metadata>
<g transform="translate(0.000000,179.000000) scale(0.100000,-0.100000)"
fill="#000000" stroke="none">
<path d="M578 1372 l-28 -3 0 -285 0 -284 58 -1 c31 0 81 0 110 1 37 1 52 -2
53 -12 0 -7 1 -76 1 -153 1 -113 -3 -147 -16 -173 -9 -18 -14 -38 -10 -44 5
-8 10 -6 14 7 9 25 41 28 47 4 3 -10 14 -19 24 -19 17 0 17 2 -1 54 l-18 53
92 47 c199 100 316 261 331 453 4 58 8 55 -67 55 -47 1 -58 -8 -58 -51 0 -59
-35 -160 -78 -227 -38 -58 -117 -132 -129 -121 -9 10 -9 110 0 130 4 9 14 17
21 17 27 0 103 69 131 121 27 48 30 63 30 139 0 97 -16 138 -81 204 -45 46
-102 73 -172 82 -58 7 -213 11 -254 6z m271 -103 c38 -24 68 -99 70 -175 1
-38 -3 -82 -8 -99 l-9 -30 -2 35 c-1 19 -2 43 -1 52 2 19 -29 25 -91 19 l-38
-3 3 -90 c3 -95 -4 -111 -44 -101 -18 5 -19 19 -19 207 0 112 2 205 5 208 9 8
111 -9 134 -23z m-62 -801 c-3 -8 -6 -5 -6 6 -1 11 2 17 5 13 3 -3 4 -12 1
-19z"/>
<path d="M410 468 l0 -61 41 6 c48 6 59 15 63 49 4 37 -17 58 -63 63 l-41 4 0
-61z m58 33 c18 -11 11 -65 -8 -69 -12 -2 -16 8 -17 38 -2 41 2 46 25 31z"/>
<path d="M539 518 c0 -4 -1 -26 -1 -48 0 -59 1 -60 17 -60 10 0 15 10 15 28
l1 27 15 -27 c8 -16 21 -28 29 -28 17 0 19 9 6 29 -6 9 -5 21 2 33 18 29 -3
53 -47 53 -20 1 -36 -3 -37 -7z m56 -28 c0 -7 -6 -15 -12 -17 -8 -3 -13 4 -13
17 0 13 5 20 13 18 6 -3 12 -11 12 -18z"/>
<path d="M658 517 c-2 -6 -3 -32 -3 -57 0 -44 1 -45 38 -47 20 -2 37 1 37 7 0
5 -9 10 -20 10 -11 0 -20 7 -20 15 0 8 7 15 15 15 8 0 15 5 15 10 0 6 -7 10
-15 10 -8 0 -15 7 -15 15 0 9 9 15 22 15 30 0 14 13 -21 16 -17 2 -31 -2 -33
-9z"/>
<path d="M869 528 c-7 -14 -5 -109 2 -113 5 -4 9 9 10 27 l1 33 10 -27 c12
-35 26 -36 34 -2 4 17 9 22 14 14 4 -7 5 -21 2 -32 -4 -16 -1 -19 14 -16 15 3
19 12 19 51 1 59 -7 76 -29 58 -9 -8 -16 -20 -16 -27 0 -22 -16 -16 -28 11
-10 21 -28 33 -33 23z"/>
<path d="M1021 478 c1 -29 4 -56 6 -60 7 -14 67 31 84 63 l16 32 0 -47 c0 -76
22 -81 24 -5 2 65 1 66 -29 67 -21 0 -28 -4 -29 -20 -1 -12 -11 -31 -23 -42
l-20 -20 0 42 c0 31 -4 42 -15 42 -12 0 -15 -12 -14 -52z"/>
<path d="M1171 470 c1 -56 2 -60 23 -60 30 0 76 36 76 59 0 26 -42 61 -73 61
-25 0 -26 -2 -26 -60z m57 28 c18 -18 14 -46 -8 -58 -18 -10 -20 -8 -20 30 0
41 7 49 28 28z"/>
<path d="M1330 509 c-50 -42 -76 -99 -45 -99 8 0 15 7 15 15 0 8 9 15 20 15
11 0 20 -7 20 -15 0 -15 19 -22 21 -7 5 24 5 112 0 112 -3 -1 -17 -10 -31 -21z
m10 -39 c0 -5 -5 -10 -11 -10 -5 0 -7 5 -4 10 3 6 8 10 11 10 2 0 4 -4 4 -10z"/>
</g>
</svg>
